<svg width="117" height="36" viewBox="0 0 117 36" fill="none" xmlns="http://www.w3.org/2000/svg">
<g clip-path="url(#clip0)">
<path d="M0.394531 35.0999C0.253906 34.9874 0.169531 34.8186 0.0851563 34.678C0.0289063 34.5092 -0.0273438 34.3405 -0.0273438 34.1717V1.8561C-0.0273438 1.68735 0.000781249 1.49048 0.0851563 1.34985C0.169531 1.1811 0.282031 1.01235 0.394531 0.899854C0.507031 0.787354 0.675781 0.674854 0.816406 0.618604C0.985156 0.562354 1.15391 0.506104 1.32266 0.506104H11.3633C11.532 0.506104 11.7289 0.534229 11.8977 0.618604C12.0664 0.674854 12.207 0.787354 12.3477 0.927979C12.4883 1.04048 12.5727 1.20923 12.657 1.34985C12.7133 1.5186 12.7695 1.68735 12.7695 1.8561V25.2561H26.6633C27.0289 25.2561 27.3664 25.3967 27.6195 25.6499C27.8727 25.903 28.0133 26.2405 28.0133 26.6061V34.1436C28.0133 34.5092 27.8727 34.8467 27.6195 35.0999C27.3664 35.353 27.0289 35.4936 26.6633 35.4936H1.35078C1.18203 35.4936 1.01328 35.4655 0.844531 35.3811C0.675781 35.3249 0.535156 35.2405 0.394531 35.0999Z" fill="#FC786D"/>
<path d="M32.373 35.0999C32.2324 34.9874 32.148 34.8186 32.0637 34.678C32.0074 34.5092 31.9512 34.3405 31.9512 34.1717V9.5061H42.273C42.6387 9.5061 42.9762 9.64673 43.2293 9.89985C43.4824 10.153 43.623 10.4905 43.623 10.828V34.1155C43.623 34.4811 43.4824 34.8186 43.2293 35.0717C42.9762 35.3249 42.6387 35.4655 42.273 35.4655H33.3012C33.1324 35.4655 32.9355 35.4374 32.7949 35.3811C32.6543 35.3249 32.5137 35.2124 32.373 35.0999Z" fill="#FC786D"/>
<path d="M23.3156 9.11265C23.0906 8.8314 22.9781 8.4939 23.0062 8.12827V1.88452C23.0062 1.5189 23.1187 1.1814 23.3156 0.900146C23.4 0.787646 23.5124 0.675146 23.6531 0.590771C23.7937 0.506396 23.9343 0.478271 24.0749 0.478271H30.8812C31.0218 0.478271 31.1906 0.506396 31.3031 0.590771C31.4437 0.675146 31.5562 0.759521 31.6406 0.900146C31.8656 1.1814 31.9781 1.5189 31.95 1.88452V9.5064H24.0749C23.9343 9.5064 23.7656 9.47827 23.6531 9.3939C23.5124 9.33765 23.4 9.22515 23.3156 9.11265Z" fill="#FDC553"/>
<path d="M80.1578 14.2592C80.0453 11.3624 79.2578 8.88735 77.7953 6.8061C76.3047 4.72485 74.2516 3.0936 71.8891 2.10923C69.4141 1.04048 66.5734 0.506104 63.4234 0.506104H48.9672C48.7984 0.506104 48.6016 0.534229 48.4609 0.618604C48.3203 0.702979 48.1516 0.787354 48.0391 0.927979C47.8984 1.04048 47.8141 1.20923 47.7297 1.34985C47.6734 1.5186 47.6172 1.68735 47.6172 1.8561V34.1717C47.6172 34.5374 47.7578 34.8749 48.0109 35.128C48.2641 35.3811 48.6016 35.5217 48.9672 35.5217H63.6484C68.5984 35.5217 72.5359 34.3686 75.4609 32.0624C78.3859 29.7561 79.9609 26.3249 80.1578 21.7124C80.2141 19.9124 80.2422 18.703 80.2703 18.0561C80.2703 17.3811 80.2422 16.1155 80.1578 14.2592ZM67.4172 21.7124C67.3609 23.0342 66.9672 24.0467 66.2359 24.7499C65.5047 25.4249 64.5766 25.7624 63.3953 25.7624H60.1609V10.2374H63.1703C64.2391 10.2092 65.3078 10.5467 66.1516 11.2217C66.9391 11.8967 67.3609 12.8811 67.4172 14.2311C67.4734 15.1311 67.5297 16.3686 67.5297 17.9436C67.5297 19.4905 67.5016 20.728 67.4172 21.7124Z" fill="#FC786D"/>
<path d="M116.804 13.6969C116.691 10.8281 115.932 8.35312 114.526 6.3C113.063 4.21875 111.038 2.5875 108.676 1.60312C106.201 0.534375 103.332 0 100.041 0C96.7789 0 93.882 0.534375 91.407 1.60312C89.0445 2.5875 87.0195 4.21875 85.557 6.3C84.1227 8.38125 83.3633 10.8281 83.2789 13.6969C83.2508 14.625 83.2227 16.1156 83.2227 18.1406C83.2227 20.1375 83.2508 21.6 83.2789 22.5C83.4758 26.8875 85.0789 30.2625 88.032 32.5406C91.0133 34.8469 95.007 36 100.013 36C105.02 36 109.013 34.8469 111.995 32.5406C114.976 30.2344 116.551 26.8875 116.748 22.5C116.804 20.7 116.86 19.2375 116.86 18.1406C116.916 17.0438 116.86 15.5813 116.804 13.6969ZM103.754 22.1906C103.726 23.5688 103.388 24.5812 102.713 25.2281C102.066 25.9031 101.166 26.2406 100.041 26.2406C98.9164 26.2406 98.0164 25.9031 97.3414 25.2281C96.6945 24.5531 96.357 23.5406 96.3008 22.1906C96.2727 21.2344 96.2445 19.8 96.2445 17.9438C96.2445 16.0875 96.2727 14.6812 96.3008 13.7812C96.3289 12.4031 96.6945 11.3906 97.3695 10.7438C98.1008 10.0969 99.057 9.75938 100.013 9.75938C100.998 9.75938 101.926 10.125 102.685 10.7438C103.36 11.4187 103.698 12.4312 103.754 13.7812C103.81 15.5813 103.866 16.9594 103.866 17.9438C103.866 18.8438 103.838 20.2781 103.754 22.1906Z" fill="#FC786D"/>
</g>
<defs>
<clipPath id="clip0">
<rect width="116.916" height="36" fill="white"/>
</clipPath>
</defs>
</svg>
