<svg width="619" height="400" viewBox="0 0 619 400" fill="none" xmlns="http://www.w3.org/2000/svg">
<rect width="619" height="400" fill="white"/>
<g filter="url(#filter0_d)">
<rect x="256" y="130" width="140" height="140" rx="26" fill="white"/>
<rect x="256" y="130" width="140" height="140" rx="26" stroke="black" stroke-width="6"/>
</g>
<g filter="url(#filter1_d)">
<rect x="428" y="130" width="140" height="140" rx="26" fill="white"/>
<rect x="428" y="130" width="140" height="140" rx="26" stroke="black" stroke-width="6"/>
</g>
<g filter="url(#filter2_d)">
<rect x="84" y="130" width="140" height="140" rx="26" fill="white"/>
<rect x="84" y="130" width="140" height="140" rx="26" stroke="black" stroke-width="6"/>
</g>
<path d="M199 200.5H250M250 200.5L245.5 196M250 200.5L245.5 205" stroke="black" stroke-width="3"/>
<path d="M541 200.5H592M592 200.5L587.5 196M592 200.5L587.5 205" stroke="black" stroke-width="3"/>
<path d="M26 200.5H77M77 200.5L72.5 196M77 200.5L72.5 205" stroke="black" stroke-width="3"/>
<path d="M370 200.5H421M421 200.5L416.5 196M421 200.5L416.5 205" stroke="black" stroke-width="3"/>
<defs>
<filter id="filter0_d" x="253" y="127" width="152" height="152" filterUnits="userSpaceOnUse" color-interpolation-filters="sRGB">
<feFlood flood-opacity="0" result="BackgroundImageFix"/>
<feColorMatrix in="SourceAlpha" type="matrix" values="0 0 0 0 0 0 0 0 0 0 0 0 0 0 0 0 0 0 127 0"/>
<feOffset dx="6" dy="6"/>
<feColorMatrix type="matrix" values="0 0 0 0 0 0 0 0 0 1 0 0 0 0 0.94 0 0 0 0.5 0"/>
<feBlend mode="normal" in2="BackgroundImageFix" result="effect1_dropShadow"/>
<feBlend mode="normal" in="SourceGraphic" in2="effect1_dropShadow" result="shape"/>
</filter>
<filter id="filter1_d" x="425" y="127" width="152" height="152" filterUnits="userSpaceOnUse" color-interpolation-filters="sRGB">
<feFlood flood-opacity="0" result="BackgroundImageFix"/>
<feColorMatrix in="SourceAlpha" type="matrix" values="0 0 0 0 0 0 0 0 0 0 0 0 0 0 0 0 0 0 127 0"/>
<feOffset dx="6" dy="6"/>
<feColorMatrix type="matrix" values="0 0 0 0 1 0 0 0 0 0.191667 0 0 0 0 0.191667 0 0 0 0.5 0"/>
<feBlend mode="normal" in2="BackgroundImageFix" result="effect1_dropShadow"/>
<feBlend mode="normal" in="SourceGraphic" in2="effect1_dropShadow" result="shape"/>
</filter>
<filter id="filter2_d" x="81" y="127" width="152" height="152" filterUnits="userSpaceOnUse" color-interpolation-filters="sRGB">
<feFlood flood-opacity="0" result="BackgroundImageFix"/>
<feColorMatrix in="SourceAlpha" type="matrix" values="0 0 0 0 0 0 0 0 0 0 0 0 0 0 0 0 0 0 127 0"/>
<feOffset dx="6" dy="6"/>
<feColorMatrix type="matrix" values="0 0 0 0 0 0 0 0 0 1 0 0 0 0 0.4 0 0 0 0.5 0"/>
<feBlend mode="normal" in2="BackgroundImageFix" result="effect1_dropShadow"/>
<feBlend mode="normal" in="SourceGraphic" in2="effect1_dropShadow" result="shape"/>
</filter>
</defs>
</svg>
